<?xml version="1.0" encoding="iso-8859-1"?>
<!-- Uploaded to: SVG Repo, www.svgrepo.com, Generator: SVG Repo Mixer Tools -->
<svg version="1.1" id="Layer_1" xmlns="http://www.w3.org/2000/svg" xmlns:xlink="http://www.w3.org/1999/xlink" 
	 viewBox="0 0 497.906 497.906" xml:space="preserve">
<rect x="410.306" y="96" style="fill:#CE1906;" width="32" height="32"/>
<polyline style="fill:#8C0300;" points="442.306,96 442.306,128 410.306,128 "/>
<rect x="396.706" y="92" style="fill:#CE1906;" width="32" height="32"/>
<polyline style="fill:#8C0300;" points="428.706,92 428.706,124 396.706,124 "/>
<rect x="410.306" y="112" style="fill:#CE1906;" width="32" height="32"/>
<polyline style="fill:#8C0300;" points="442.306,112 442.306,144 410.306,144 "/>
<path style="fill:#7C5037;" d="M294.306,335.2c68.8-68.8,123.2-137.6,151.2-188l0,0c3.2-5.6-4.8-20.8-20-36
	c-14.4-14.4-30.4-23.2-36-20l0,0c-49.6,28.8-118.4,82.4-188,152c-78.4,78.4-137.6,156-160,206.4h-0.8c-4,4,3.2,17.6,16,31.2
	c12.8,12.8,26.4,20,31.2,16V496C138.306,472.8,215.906,413.6,294.306,335.2z"/>
<path style="fill:#5E3E29;" d="M445.506,148L445.506,148c3.2-5.6-5.6-21.6-20-36s-30.4-23.2-36-20l0,0
	c-49.6,28-118.4,81.6-188,151.2c-78.4,78.4-137.6,156-160,206.4h-0.8"/>
<path style="fill:#F9AE41;" d="M321.506,308c11.2-12,22.4-24,32-35.2l-88-89.6c-12,10.4-23.2,20.8-35.2,32L321.506,308z"/>
<g>
	<path style="fill:#E5892E;" d="M353.506,272l-88-88.8c-12,10.4-23.2,20.8-35.2,32"/>
	<circle style="fill:#E5892E;" cx="242.306" cy="294.4" r="37.6"/>
</g>
<circle style="fill:#063A5E;" cx="242.306" cy="294.4" r="23.2"/>
<path style="fill:#00233F;" d="M219.906,294.4c0-12.8,10.4-23.2,23.2-23.2s23.2,10.4,23.2,23.2"/>
<g>
	<polyline style="fill:#998F8F;" points="410.306,8 410.306,48 434.306,48 434.306,88 	"/>
	<polyline style="fill:#998F8F;" points="434.306,0 434.306,40 458.306,40 458.306,72 	"/>
</g>
</svg>